<svg width="47" height="48" viewBox="0 0 47 48" fill="none" xmlns="http://www.w3.org/2000/svg">
<g clip-path="url(#clip0_40_661)">
<path d="M35.4019 16.8413C34.5525 17.2185 33.6395 17.4724 32.6813 17.5869C33.6597 17.001 34.411 16.0727 34.7641 14.9663C33.8492 15.5089 32.8352 15.9034 31.7558 16.116C30.8929 15.1953 29.6605 14.62 28.2982 14.62C25.2399 14.62 22.9926 17.4734 23.6833 20.4355C19.7476 20.2383 16.2573 18.3527 13.9206 15.4868C12.6795 17.6158 13.277 20.4009 15.3857 21.8112C14.6103 21.7862 13.8792 21.5736 13.2414 21.2186C13.1894 23.413 14.7623 25.466 17.0404 25.923C16.3738 26.1039 15.6436 26.1462 14.9009 26.0038C15.5031 27.8856 17.2521 29.2545 19.3263 29.293C17.3348 30.8544 14.8258 31.5519 12.313 31.2556C14.4093 32.5996 16.9 33.3836 19.5745 33.3836C28.3694 33.3836 33.3384 25.9557 33.0382 19.2936C33.9637 18.625 34.767 17.7909 35.4019 16.8413V16.8413Z" fill="url(#paint0_linear_40_661)"/>
</g>
<rect x="1.34627" y="1.48811" width="45.0234" height="45.0234" rx="22.5117" stroke="url(#paint1_linear_40_661)" stroke-width="1.15445"/>
<defs>
<linearGradient id="paint0_linear_40_661" x1="12.0406" y1="30.1938" x2="36.0315" y2="29.0593" gradientUnits="userSpaceOnUse">
<stop stop-color="#D98639"/>
<stop offset="1" stop-color="#FF3D00"/>
</linearGradient>
<linearGradient id="paint1_linear_40_661" x1="0.224248" y1="39.2385" x2="48.2425" y2="37.3932" gradientUnits="userSpaceOnUse">
<stop stop-color="#D98639"/>
<stop offset="1" stop-color="#FF3D00"/>
</linearGradient>
<clipPath id="clip0_40_661">
<rect width="23.0889" height="23.0889" fill="white" transform="translate(12.313 12.4554)"/>
</clipPath>
</defs>
</svg>
